<?xml version="1.0" standalone="no"?>
<!DOCTYPE svg PUBLIC "-//W3C//DTD SVG 20010904//EN"
 "http://www.w3.org/TR/2001/REC-SVG-20010904/DTD/svg10.dtd">
<svg version="1.0" xmlns="http://www.w3.org/2000/svg"
 width="150.000000pt" height="150.000000pt" viewBox="0 0 150.000000 150.000000"
 preserveAspectRatio="xMidYMid meet">

<g transform="translate(0.000000,150.000000) scale(0.100000,-0.100000)"
fill="#000000" stroke="none">
<path d="M0 750 l0 -750 750 0 750 0 0 750 0 750 -750 0 -750 0 0 -750z m863
541 c56 -32 143 -82 192 -111 50 -29 101 -58 115 -64 14 -7 42 -22 63 -35 l37
-23 1 -131 c1 -73 1 -136 0 -140 -1 -5 -2 -80 -2 -168 l-1 -159 -101 -50 c-90
-44 -209 -110 -360 -201 l-47 -28 -59 34 c-33 19 -63 35 -67 35 -4 0 -15 6
-23 14 -17 15 -207 126 -216 126 -3 0 -34 18 -69 40 l-64 40 -7 291 c-4 159
-6 291 -4 293 2 2 87 52 189 111 102 59 214 125 250 146 36 21 66 38 68 38 1
1 48 -25 105 -58z"/>
<path d="M683 1256 c-40 -24 -141 -84 -225 -132 -84 -48 -155 -91 -158 -95 -3
-4 -5 -125 -5 -269 l0 -263 24 -16 c31 -21 286 -167 331 -189 19 -9 44 -25 55
-35 37 -34 61 -32 140 13 41 24 72 47 69 52 -3 4 2 8 10 8 14 0 72 30 229 119
31 18 62 42 68 53 8 14 9 102 6 271 -4 243 -5 251 -26 268 -12 10 -95 59 -184
110 -89 50 -183 104 -208 120 -25 16 -48 29 -50 29 -2 0 -36 -20 -76 -44z
m-160 -230 c54 -23 241 -186 213 -186 -13 0 -55 27 -180 113 -22 15 -56 30
-77 33 -35 6 -37 8 -27 30 13 28 26 29 71 10z m522 -36 c11 -17 -11 -36 -57
-49 -23 -7 -53 -20 -67 -29 l-24 -17 18 28 c38 59 112 96 130 67z m-430 -121
c92 -49 95 -52 79 -70 -19 -21 -74 -39 -120 -39 -46 0 -84 34 -84 75 0 33 15
85 25 85 2 0 48 -23 100 -51z m454 5 c26 -95 -59 -143 -166 -94 -24 10 -43 25
-43 32 0 14 180 109 192 101 4 -2 12 -20 17 -39z m-450 -193 c9 -6 -3 -10 -38
-12 -43 -3 -49 -2 -34 9 20 14 52 16 72 3z m44 -120 c29 -18 100 -33 207 -44
19 -2 -12 -4 -70 -5 -123 -2 -175 8 -204 39 -12 12 -15 19 -9 15 8 -4 6 4 -4
22 -10 17 -14 36 -9 47 6 16 10 14 31 -17 13 -20 39 -45 58 -57z m60 -101 c35
-1 39 -2 24 -11 -21 -13 -83 -4 -93 13 -5 8 -1 9 10 5 10 -4 36 -7 59 -7z"/>
</g>
</svg>
